<svg width="9" height="16" viewBox="0 0 9 16" fill="none" xmlns="http://www.w3.org/2000/svg">
<path d="M8.92822 8.00684C8.92822 8.17285 8.89502 8.33057 8.82861 8.47998C8.76774 8.62386 8.66813 8.76221 8.52979 8.89502L2.14648 15.1455C1.93066 15.3558 1.66781 15.4609 1.35791 15.4609C1.15869 15.4609 0.973307 15.4111 0.801758 15.3115C0.630208 15.2119 0.491862 15.0791 0.386719 14.9131C0.287109 14.7471 0.237305 14.5589 0.237305 14.3486C0.237305 14.0443 0.353516 13.7731 0.585938 13.5352L6.27197 8.00684L0.585938 2.47852C0.353516 2.24609 0.237305 1.97493 0.237305 1.66504C0.237305 1.46029 0.287109 1.2749 0.386719 1.10889C0.491862 0.937337 0.630208 0.801758 0.801758 0.702148C0.973307 0.602539 1.15869 0.552734 1.35791 0.552734C1.66781 0.552734 1.93066 0.657878 2.14648 0.868164L8.52979 7.11865C8.6626 7.25146 8.76221 7.38981 8.82861 7.53369C8.89502 7.67757 8.92822 7.83529 8.92822 8.00684Z" fill="black"/>
</svg>
