<svg width="16" height="10" viewBox="0 0 16 10" fill="none" xmlns="http://www.w3.org/2000/svg">
<path d="M7.5791 9.65527C7.2526 9.65527 6.95378 9.52246 6.68262 9.25684L0.432129 2.86523C0.326986 2.75456 0.246745 2.63558 0.191406 2.5083C0.141602 2.38102 0.116699 2.23991 0.116699 2.08496C0.116699 1.88021 0.166504 1.69206 0.266113 1.52051C0.365723 1.34896 0.498535 1.21338 0.664551 1.11377C0.8361 1.01416 1.02425 0.964355 1.229 0.964355C1.5389 0.964355 1.81006 1.0778 2.04248 1.30469L7.96094 7.38086H7.20557L13.1074 1.30469C13.3398 1.0778 13.611 0.964355 13.9209 0.964355C14.1257 0.964355 14.311 1.01416 14.4771 1.11377C14.6486 1.21338 14.7842 1.34896 14.8838 1.52051C14.9834 1.69206 15.0332 1.88021 15.0332 2.08496C15.0332 2.38932 14.9253 2.64665 14.7095 2.85693L8.47559 9.25684C8.34277 9.38965 8.20166 9.48926 8.05225 9.55566C7.90837 9.61654 7.75065 9.64974 7.5791 9.65527Z" fill="black"/>
</svg>
